# xmcd
#
# Track frame offsets:
#   150
#   21797
#   43019
#   63241
#   79923
#   102803
#   112385
#   127637
#   144101
#   158748
#   172078
#   185752
#   203947
#   224056
#   234618
#
# Disc length: 3134 seconds
#
# Revision: 0
# Processed by: cddbd v1.4PL0 Copyright (c) Steve Scherf et al.
# Submitted via: BirdCage freedb agent 1.2.1
#
DISCID=d70c3c0f
DTITLE=Dés and Geszti - A dzsungel könyve
DYEAR=1998
DGENRE=Alternative
TTITLE0=nyitány
TTITLE1=farkas vagyok
TTITLE2=beindul a pofonofon
TTITLE3=egy majomban õrlünk
TTITLE4=válj kõvé
TTITLE5=mit ér a farkas
TTITLE6=amíg õriz a szemed
TTITLE7=a mi emberünk
TTITLE8=szavakat keresek
TTITLE9=vadászok dala
TTITLE10=száz a kérdés
TTITLE11=a tigris éjszakája
TTITLE12=kegyelet egylet
TTITLE13=beszél a szél
TTITLE14=finálé
EXTD=
EXTT0=
EXTT1=
EXTT2=
EXTT3=
EXTT4=
EXTT5=
EXTT6=
EXTT7=
EXTT8=
EXTT9=
EXTT10=
EXTT11=
EXTT12=
EXTT13=
EXTT14=
PLAYORDER=
